<svg xmlns="http://www.w3.org/2000/svg" viewBox="0 0 24 24">
  <!-- Controller body -->
  <path d="M7 6C4.24 6 2 8.24 2 11v2c0 .83.23 1.6.62 2.26L4 18h2l.5-2H7v2h2v-2h6v2h2v-2h.5L18 18h2l1.38-2.74C21.77 14.6 22 13.83 22 13v-2c0-2.76-2.24-5-5-5H7z" fill="#37474F"/>
  <!-- D-pad vertical bar -->
  <rect x="6.25" y="9.75" width="2.5" height="5.5" rx="1" fill="#78909C"/>
  <!-- D-pad horizontal bar -->
  <rect x="4" y="11.75" width="7" height="2" rx="1" fill="#78909C"/>
  <!-- ABXY buttons -->
  <circle cx="16.5" cy="10.5" r="1.2" fill="#ef5350"/>
  <circle cx="19"   cy="12"   r="1.2" fill="#66bb6a"/>
  <circle cx="14"   cy="12"   r="1.2" fill="#42a5f5"/>
  <circle cx="16.5" cy="13.5" r="1.2" fill="#ffa726"/>
</svg>
